<mxfile host="app.diagrams.net" agent="Mozilla/5.0 (Macintosh; Intel Mac OS X 10_15_7) AppleWebKit/537.36 (KHTML, like Gecko) Chrome/138.0.0.0 Safari/537.36" version="28.1.1">
  <diagram name="Page-1" id="J5SejxokWDs_I1bTdrdI">
    <mxGraphModel grid="1" page="1" gridSize="10" guides="1" tooltips="1" connect="1" arrows="1" fold="1" pageScale="1" pageWidth="850" pageHeight="1100" math="0" shadow="0">
      <root>
        <mxCell id="0" />
        <mxCell id="1" parent="0" />
        <mxCell id="sRo3M1c-TqLhEgrN3lf_-10" value="" style="edgeStyle=orthogonalEdgeStyle;rounded=0;orthogonalLoop=1;jettySize=auto;html=1;" edge="1" parent="1" source="sRo3M1c-TqLhEgrN3lf_-5" target="sRo3M1c-TqLhEgrN3lf_-9">
          <mxGeometry relative="1" as="geometry" />
        </mxCell>
        <mxCell id="sRo3M1c-TqLhEgrN3lf_-5" value="Site" style="html=1;whiteSpace=wrap;" vertex="1" parent="1">
          <mxGeometry x="230" y="300" width="110" height="50" as="geometry" />
        </mxCell>
        <mxCell id="sRo3M1c-TqLhEgrN3lf_-7" style="edgeStyle=orthogonalEdgeStyle;rounded=0;orthogonalLoop=1;jettySize=auto;html=1;" edge="1" parent="1" source="sRo3M1c-TqLhEgrN3lf_-6" target="sRo3M1c-TqLhEgrN3lf_-5">
          <mxGeometry relative="1" as="geometry" />
        </mxCell>
        <mxCell id="sRo3M1c-TqLhEgrN3lf_-6" value="LocalOperation" style="html=1;whiteSpace=wrap;" vertex="1" parent="1">
          <mxGeometry x="230" y="410" width="110" height="50" as="geometry" />
        </mxCell>
        <mxCell id="sRo3M1c-TqLhEgrN3lf_-8" value="perform" style="text;html=1;align=center;verticalAlign=middle;resizable=0;points=[];autosize=1;strokeColor=none;fillColor=none;" vertex="1" parent="1">
          <mxGeometry x="290" y="368" width="60" height="30" as="geometry" />
        </mxCell>
        <mxCell id="sRo3M1c-TqLhEgrN3lf_-9" value="TimestampedOperation" style="html=1;whiteSpace=wrap;" vertex="1" parent="1">
          <mxGeometry x="430" y="300" width="140" height="50" as="geometry" />
        </mxCell>
        <mxCell id="sRo3M1c-TqLhEgrN3lf_-11" value="produce" style="text;html=1;align=center;verticalAlign=middle;resizable=0;points=[];autosize=1;strokeColor=none;fillColor=none;" vertex="1" parent="1">
          <mxGeometry x="350" y="300" width="70" height="30" as="geometry" />
        </mxCell>
        <mxCell id="sRo3M1c-TqLhEgrN3lf_-12" value="Network" style="html=1;whiteSpace=wrap;" vertex="1" parent="1">
          <mxGeometry x="610" y="410" width="110" height="50" as="geometry" />
        </mxCell>
        <mxCell id="sRo3M1c-TqLhEgrN3lf_-13" value="Site" style="html=1;whiteSpace=wrap;" vertex="1" parent="1">
          <mxGeometry x="650" y="300" width="110" height="50" as="geometry" />
        </mxCell>
        <mxCell id="sRo3M1c-TqLhEgrN3lf_-22" style="edgeStyle=orthogonalEdgeStyle;rounded=0;orthogonalLoop=1;jettySize=auto;html=1;" edge="1" parent="1" source="sRo3M1c-TqLhEgrN3lf_-14" target="sRo3M1c-TqLhEgrN3lf_-21">
          <mxGeometry relative="1" as="geometry" />
        </mxCell>
        <mxCell id="sRo3M1c-TqLhEgrN3lf_-14" value="TimestampedOperation" style="html=1;whiteSpace=wrap;" vertex="1" parent="1">
          <mxGeometry x="215" y="90" width="140" height="50" as="geometry" />
        </mxCell>
        <mxCell id="sRo3M1c-TqLhEgrN3lf_-16" style="edgeStyle=orthogonalEdgeStyle;rounded=0;orthogonalLoop=1;jettySize=auto;html=1;" edge="1" parent="1" source="sRo3M1c-TqLhEgrN3lf_-15" target="sRo3M1c-TqLhEgrN3lf_-14">
          <mxGeometry relative="1" as="geometry" />
        </mxCell>
        <mxCell id="sRo3M1c-TqLhEgrN3lf_-15" value="Network" style="ellipse;shape=cloud;whiteSpace=wrap;html=1;" vertex="1" parent="1">
          <mxGeometry x="365" width="120" height="80" as="geometry" />
        </mxCell>
        <mxCell id="sRo3M1c-TqLhEgrN3lf_-17" value="Receive" style="text;html=1;align=center;verticalAlign=middle;resizable=0;points=[];autosize=1;strokeColor=none;fillColor=none;" vertex="1" parent="1">
          <mxGeometry x="290" y="10" width="70" height="30" as="geometry" />
        </mxCell>
        <mxCell id="sRo3M1c-TqLhEgrN3lf_-30" style="edgeStyle=orthogonalEdgeStyle;rounded=0;orthogonalLoop=1;jettySize=auto;html=1;exitX=0.937;exitY=1.008;exitDx=0;exitDy=0;exitPerimeter=0;" edge="1" parent="1" source="sRo3M1c-TqLhEgrN3lf_-19" target="sRo3M1c-TqLhEgrN3lf_-21">
          <mxGeometry relative="1" as="geometry">
            <mxPoint x="129" y="215" as="sourcePoint" />
            <Array as="points">
              <mxPoint x="-165" y="215" />
            </Array>
          </mxGeometry>
        </mxCell>
        <mxCell id="sRo3M1c-TqLhEgrN3lf_-19" value="" style="html=1;whiteSpace=wrap;" vertex="1" parent="1">
          <mxGeometry x="-390" y="150.5" width="240" height="209.5" as="geometry" />
        </mxCell>
        <mxCell id="sRo3M1c-TqLhEgrN3lf_-43" style="edgeStyle=orthogonalEdgeStyle;rounded=0;orthogonalLoop=1;jettySize=auto;html=1;" edge="1" parent="1" source="sRo3M1c-TqLhEgrN3lf_-21" target="sRo3M1c-TqLhEgrN3lf_-42">
          <mxGeometry relative="1" as="geometry" />
        </mxCell>
        <mxCell id="sRo3M1c-TqLhEgrN3lf_-21" value="ExecuteRemoteOperationPolicy" style="rounded=0;whiteSpace=wrap;html=1;" vertex="1" parent="1">
          <mxGeometry x="194" y="200" width="180" height="30" as="geometry" />
        </mxCell>
        <mxCell id="sRo3M1c-TqLhEgrN3lf_-23" value="1. Current site latest operation is &lt;br&gt;equal to the context of generated operation" style="text;align=left;verticalAlign=middle;resizable=0;points=[];autosize=1;strokeColor=none;fillColor=none;html=1;" vertex="1" parent="1">
          <mxGeometry x="-386" y="178.5" width="250" height="40" as="geometry" />
        </mxCell>
        <mxCell id="sRo3M1c-TqLhEgrN3lf_-24" value="&lt;span style=&quot;text-wrap-mode: wrap;&quot;&gt;ExecuteRemoteOperationPolicy&lt;/span&gt;" style="text;html=1;align=center;verticalAlign=middle;resizable=0;points=[];autosize=1;strokeColor=none;fillColor=none;" vertex="1" parent="1">
          <mxGeometry x="-361" y="149.5" width="190" height="30" as="geometry" />
        </mxCell>
        <mxCell id="sRo3M1c-TqLhEgrN3lf_-28" value="2. Other sites last operation is equal&lt;span style=&quot;background-color: transparent; color: light-dark(rgb(0, 0, 0), rgb(255, 255, 255));&quot;&gt;&amp;nbsp;or&amp;nbsp;&lt;/span&gt;&lt;div&gt;&lt;span style=&quot;background-color: transparent; color: light-dark(rgb(0, 0, 0), rgb(255, 255, 255));&quot;&gt;greater that context &lt;/span&gt;&lt;span style=&quot;background-color: transparent; color: light-dark(rgb(0, 0, 0), rgb(255, 255, 255));&quot;&gt;of generated operation&lt;/span&gt;&lt;/div&gt;" style="text;align=left;verticalAlign=middle;resizable=0;points=[];autosize=1;strokeColor=none;fillColor=none;html=1;" vertex="1" parent="1">
          <mxGeometry x="-386" y="224.5" width="250" height="40" as="geometry" />
        </mxCell>
        <mxCell id="sRo3M1c-TqLhEgrN3lf_-47" style="edgeStyle=orthogonalEdgeStyle;rounded=0;orthogonalLoop=1;jettySize=auto;html=1;entryX=0;entryY=0.5;entryDx=0;entryDy=0;" edge="1" parent="1" source="sRo3M1c-TqLhEgrN3lf_-36" target="sRo3M1c-TqLhEgrN3lf_-42">
          <mxGeometry relative="1" as="geometry" />
        </mxCell>
        <mxCell id="sRo3M1c-TqLhEgrN3lf_-36" value="" style="html=1;whiteSpace=wrap;" vertex="1" parent="1">
          <mxGeometry x="-397" y="441" width="307" height="159" as="geometry" />
        </mxCell>
        <mxCell id="sRo3M1c-TqLhEgrN3lf_-38" value="&lt;span style=&quot;text-wrap-mode: wrap;&quot;&gt;TransformOperationPolicy&lt;/span&gt;" style="text;html=1;align=center;verticalAlign=middle;resizable=0;points=[];autosize=1;strokeColor=none;fillColor=none;" vertex="1" parent="1">
          <mxGeometry x="-353" y="440" width="160" height="30" as="geometry" />
        </mxCell>
        <mxCell id="sRo3M1c-TqLhEgrN3lf_-40" value="Execute If rules 1 and 2 met.&amp;nbsp;&lt;div&gt;Check pending operations for availability(1, 2)&amp;nbsp;&lt;/div&gt;&lt;div&gt;and execute them.&lt;/div&gt;" style="text;align=left;verticalAlign=middle;resizable=0;points=[];autosize=1;strokeColor=none;fillColor=none;html=1;" vertex="1" parent="1">
          <mxGeometry x="-386" y="264.5" width="270" height="60" as="geometry" />
        </mxCell>
        <mxCell id="sRo3M1c-TqLhEgrN3lf_-41" value="Add to pending if rules 1 and 2 are not met." style="text;align=left;verticalAlign=middle;resizable=0;points=[];autosize=1;strokeColor=none;fillColor=none;html=1;" vertex="1" parent="1">
          <mxGeometry x="-386" y="324.5" width="250" height="30" as="geometry" />
        </mxCell>
        <mxCell id="sRo3M1c-TqLhEgrN3lf_-44" style="edgeStyle=orthogonalEdgeStyle;rounded=0;orthogonalLoop=1;jettySize=auto;html=1;" edge="1" parent="1" source="sRo3M1c-TqLhEgrN3lf_-42" target="sRo3M1c-TqLhEgrN3lf_-5">
          <mxGeometry relative="1" as="geometry" />
        </mxCell>
        <mxCell id="sRo3M1c-TqLhEgrN3lf_-42" value="TransformOperationPolicy" style="rounded=0;whiteSpace=wrap;html=1;" vertex="1" parent="1">
          <mxGeometry x="194" y="250" width="180" height="30" as="geometry" />
        </mxCell>
        <mxCell id="sRo3M1c-TqLhEgrN3lf_-45" style="edgeStyle=orthogonalEdgeStyle;rounded=0;orthogonalLoop=1;jettySize=auto;html=1;entryX=0.93;entryY=0.489;entryDx=0;entryDy=0;entryPerimeter=0;" edge="1" parent="1" source="sRo3M1c-TqLhEgrN3lf_-9" target="sRo3M1c-TqLhEgrN3lf_-15">
          <mxGeometry relative="1" as="geometry">
            <Array as="points">
              <mxPoint x="530" y="39" />
            </Array>
          </mxGeometry>
        </mxCell>
        <mxCell id="sRo3M1c-TqLhEgrN3lf_-46" value="Send" style="text;html=1;align=center;verticalAlign=middle;resizable=0;points=[];autosize=1;strokeColor=none;fillColor=none;" vertex="1" parent="1">
          <mxGeometry x="550" y="160" width="50" height="30" as="geometry" />
        </mxCell>
        <mxCell id="sRo3M1c-TqLhEgrN3lf_-48" value="1. If contexts are equal execute without transformation" style="text;strokeColor=none;fillColor=none;align=left;verticalAlign=top;spacingLeft=4;spacingRight=4;overflow=hidden;rotatable=0;points=[[0,0.5],[1,0.5]];portConstraint=eastwest;whiteSpace=wrap;" vertex="1" parent="1">
          <mxGeometry x="-393" y="470" width="303" height="26" as="geometry" />
        </mxCell>
        <mxCell id="sRo3M1c-TqLhEgrN3lf_-49" value="2. If contains parallel(unknown) operations, include them before execution" style="text;strokeColor=none;fillColor=none;align=left;verticalAlign=top;spacingLeft=4;spacingRight=4;overflow=hidden;rotatable=0;points=[[0,0.5],[1,0.5]];portConstraint=eastwest;whiteSpace=wrap;" vertex="1" parent="1">
          <mxGeometry x="-393" y="496" width="303" height="44" as="geometry" />
        </mxCell>
        <mxCell id="sRo3M1c-TqLhEgrN3lf_-50" value="3. If site contains transformed version of operations known to the RemoteOperation, execute GOT algorithm" style="text;strokeColor=none;fillColor=none;align=left;verticalAlign=top;spacingLeft=4;spacingRight=4;overflow=hidden;rotatable=0;points=[[0,0.5],[1,0.5]];portConstraint=eastwest;whiteSpace=wrap;" vertex="1" parent="1">
          <mxGeometry x="-390" y="538" width="303" height="44" as="geometry" />
        </mxCell>
        <mxCell id="XN1H7O15hgds6QESsMdB-1" value="" style="html=1;whiteSpace=wrap;" vertex="1" parent="1">
          <mxGeometry x="-393" y="690" width="307" height="200" as="geometry" />
        </mxCell>
        <mxCell id="XN1H7O15hgds6QESsMdB-2" value="Got algo: &#xa;find point K, where K has unknown operation to the Onew&#xa;1. find all transformed operations known to the Onew in range K..N (N = end of the list)&#xa;2. reverse their transformations to restore original version (to the point where they are in same context as in Onew)&#xa;3. exclude them from Onew = Oexcluded&#xa;4. include all operations to the Onew starting from the K " style="text;strokeColor=none;fillColor=none;align=left;verticalAlign=top;spacingLeft=4;spacingRight=4;overflow=hidden;rotatable=0;points=[[0,0.5],[1,0.5]];portConstraint=eastwest;whiteSpace=wrap;" vertex="1" parent="1">
          <mxGeometry x="-386" y="700" width="303" height="190" as="geometry" />
        </mxCell>
        <mxCell id="XN1H7O15hgds6QESsMdB-4" value="IOperationTransformStrategy" style="swimlane;fontStyle=0;childLayout=stackLayout;horizontal=1;startSize=26;fillColor=none;horizontalStack=0;resizeParent=1;resizeParentMax=0;resizeLast=0;collapsible=1;marginBottom=0;whiteSpace=wrap;html=1;" vertex="1" parent="1">
          <mxGeometry x="45" y="880" width="310" height="52" as="geometry" />
        </mxCell>
        <mxCell id="XN1H7O15hgds6QESsMdB-5" value="transform(operation, stateVector, historyBuffer): operation" style="text;strokeColor=none;fillColor=none;align=left;verticalAlign=top;spacingLeft=4;spacingRight=4;overflow=hidden;rotatable=0;points=[[0,0.5],[1,0.5]];portConstraint=eastwest;whiteSpace=wrap;html=1;" vertex="1" parent="XN1H7O15hgds6QESsMdB-4">
          <mxGeometry y="26" width="310" height="26" as="geometry" />
        </mxCell>
        <mxCell id="XN1H7O15hgds6QESsMdB-14" style="edgeStyle=orthogonalEdgeStyle;rounded=0;orthogonalLoop=1;jettySize=auto;html=1;" edge="1" parent="1" source="XN1H7O15hgds6QESsMdB-10" target="XN1H7O15hgds6QESsMdB-4">
          <mxGeometry relative="1" as="geometry" />
        </mxCell>
        <mxCell id="XN1H7O15hgds6QESsMdB-10" value="PerformSiteOperationStrategy" style="swimlane;fontStyle=1;align=center;verticalAlign=top;childLayout=stackLayout;horizontal=1;startSize=26;horizontalStack=0;resizeParent=1;resizeParentMax=0;resizeLast=0;collapsible=1;marginBottom=0;whiteSpace=wrap;html=1;" vertex="1" parent="1">
          <mxGeometry x="120" y="1030" width="160" height="120" as="geometry" />
        </mxCell>
        <mxCell id="XN1H7O15hgds6QESsMdB-11" value="chain: Preconditions, Transformation" style="text;strokeColor=none;fillColor=none;align=left;verticalAlign=top;spacingLeft=4;spacingRight=4;overflow=hidden;rotatable=0;points=[[0,0.5],[1,0.5]];portConstraint=eastwest;whiteSpace=wrap;html=1;" vertex="1" parent="XN1H7O15hgds6QESsMdB-10">
          <mxGeometry y="26" width="160" height="94" as="geometry" />
        </mxCell>
      </root>
    </mxGraphModel>
  </diagram>
</mxfile>
